<?xml version="1.0" standalone="no"?>
<!DOCTYPE svg PUBLIC "-//W3C//DTD SVG 20010904//EN"
 "http://www.w3.org/TR/2001/REC-SVG-20010904/DTD/svg10.dtd">
<svg version="1.0" xmlns="http://www.w3.org/2000/svg"
 width="700.000000pt" height="700.000000pt" viewBox="0 0 700.000000 700.000000"
 preserveAspectRatio="xMidYMid meet">
<metadata>
Created by potrace 1.11, written by Peter Selinger 2001-2013
</metadata>
<g transform="translate(0.000000,700.000000) scale(0.100000,-0.100000)"
fill="#000000" stroke="none">
<path d="M3466 6423 c-1 -1 -64 -5 -140 -8 -76 -2 -141 -7 -144 -9 -4 -2 -35
-7 -69 -11 -88 -10 -129 -17 -198 -32 -16 -4 -32 -7 -35 -8 -3 0 -23 -5 -45
-10 -22 -4 -45 -9 -52 -11 -72 -14 -291 -89 -286 -98 3 -5 1 -6 -5 -2 -6 3
-23 1 -39 -6 -15 -6 -32 -12 -38 -13 -5 0 -9 -7 -7 -14 1 -7 -2 -9 -9 -6 -12
8 -189 -63 -189 -76 0 -5 -8 -9 -17 -9 -25 0 -115 -55 -106 -64 4 -4 -1 -4
-11 0 -15 6 -17 4 -11 -6 5 -9 4 -11 -3 -6 -11 7 -204 -108 -210 -126 -2 -4
-8 -8 -14 -8 -13 0 -183 -130 -261 -200 -76 -68 -257 -251 -292 -295 -22 -27
-45 -54 -51 -60 -15 -14 -89 -114 -157 -211 -63 -91 -200 -332 -200 -351 0 -7
-4 -13 -7 -13 -4 0 -13 -15 -20 -32 -7 -18 -20 -51 -30 -73 -59 -135 -138
-365 -155 -455 -2 -14 -9 -45 -16 -70 -21 -85 -26 -117 -45 -255 -3 -27 -8
-57 -9 -66 -2 -9 -6 -72 -10 -140 -4 -68 -9 -126 -11 -128 -1 -1 1 -14 6 -27
5 -13 6 -24 2 -24 -5 0 -7 -13 -6 -29 1 -15 5 -86 9 -157 4 -71 8 -131 10
-134 2 -3 6 -37 10 -75 4 -39 9 -72 10 -75 2 -3 6 -25 10 -50 4 -25 9 -49 13
-54 3 -5 7 -24 8 -40 4 -50 60 -264 74 -281 5 -5 9 -14 9 -20 3 -21 23 -88 32
-104 5 -9 22 -53 40 -99 17 -45 35 -82 40 -82 6 0 8 -4 5 -9 -7 -10 42 -111
59 -123 5 -4 7 -8 3 -8 -10 0 41 -92 56 -102 6 -4 8 -8 3 -8 -8 0 17 -41 121
-197 45 -68 79 -110 86 -106 6 3 8 3 4 -2 -8 -8 50 -95 64 -95 4 0 8 -4 8 -9
0 -12 76 -97 182 -203 75 -76 151 -144 280 -250 45 -38 271 -188 338 -226 88
-49 331 -167 350 -170 5 0 49 -18 85 -33 20 -9 167 -58 195 -65 8 -2 68 -17
133 -34 65 -17 142 -32 172 -33 29 -1 51 -5 48 -10 -2 -4 12 -8 31 -8 20 -1
39 -2 44 -3 15 -5 119 -17 172 -21 78 -6 378 -7 420 -1 19 3 69 8 110 12 237
21 528 92 756 182 138 55 353 160 385 188 8 8 21 14 28 14 6 0 17 5 24 10 7 6
64 45 127 87 63 42 131 89 150 105 19 16 40 32 45 36 6 4 29 23 51 42 22 19
59 51 81 70 23 19 39 39 36 45 -4 5 -3 7 2 3 11 -11 36 12 28 25 -3 5 -2 7 4
4 8 -5 68 54 183 182 65 72 193 241 183 241 -4 0 0 5 10 11 9 5 17 16 17 24 0
7 3 15 8 17 12 5 85 120 85 135 0 7 4 13 8 13 4 0 18 21 31 48 13 26 26 49 29
52 5 5 69 135 102 210 58 131 140 378 133 402 -2 10 0 16 5 12 8 -5 11 6 13
54 1 9 4 19 7 22 9 7 49 220 54 285 2 30 6 59 8 63 23 36 22 609 0 646 -3 5
-7 34 -9 65 -3 60 -45 278 -68 358 -8 26 -23 76 -32 110 -10 34 -21 60 -26 57
-4 -3 -5 2 -2 10 15 39 -174 449 -286 621 -8 12 -26 41 -39 64 -14 22 -28 41
-33 41 -4 0 -8 5 -8 10 0 6 -18 36 -41 66 -36 48 -43 54 -57 42 -15 -12 -16
-11 -3 4 12 16 8 24 -30 70 -42 50 -81 95 -140 159 -15 16 -30 25 -34 21 -5
-4 -5 -2 -2 4 6 11 -88 106 -182 184 -23 19 -53 44 -65 55 -13 11 -36 29 -51
40 -16 11 -33 25 -39 30 -39 36 -117 85 -127 79 -8 -4 -9 -3 -5 4 4 6 -5 18
-21 27 -15 9 -40 23 -55 33 -146 95 -399 219 -419 206 -7 -4 -9 -3 -5 4 3 6
-9 15 -31 23 -21 6 -42 14 -48 18 -5 3 -12 6 -15 7 -3 0 -12 4 -20 7 -65 27
-302 96 -385 112 -16 3 -72 14 -122 24 -63 12 -93 14 -93 7 0 -6 -5 -4 -10 4
-5 8 -10 12 -10 9 0 -4 -19 -3 -42 2 -24 4 -101 11 -173 14 -190 10 -206 11
-209 8z m914 -259 c0 -8 -19 -13 -24 -6 -3 5 1 9 9 9 8 0 15 -2 15 -3z m-2813
-809 c0 -8 -4 -12 -9 -9 -5 3 -6 10 -3 15 9 13 12 11 12 -6z m-707 -1111 c0
-8 -19 -13 -24 -6 -3 5 1 9 9 9 8 0 15 -2 15 -3z m-95 -633 c3 -5 2 -12 -3
-15 -5 -3 -9 1 -9 9 0 17 3 19 12 6z m5525 -407 c0 -8 -19 -13 -24 -6 -3 5 1
9 9 9 8 0 15 -2 15 -3z m-80 -400 c0 -8 -19 -13 -24 -6 -3 5 1 9 9 9 8 0 15
-2 15 -3z m-5270 -480 c0 -8 -19 -13 -24 -6 -3 5 1 9 9 9 8 0 15 -2 15 -3z
m5034 -2 c3 -5 -1 -9 -9 -9 -8 0 -12 4 -9 9 3 4 7 8 9 8 2 0 6 -4 9 -8z m-249
-311 c3 -5 2 -12 -3 -15 -5 -3 -9 1 -9 9 0 17 3 19 12 6z m-2400 -1200 c3 -5
2 -12 -3 -15 -5 -3 -9 1 -9 9 0 17 3 19 12 6z m-160 -170 c3 -5 2 -12 -3 -15
-5 -3 -9 1 -9 9 0 17 3 19 12 6z"/>
</g>
</svg>
